# xmcd
#
# Track frame offsets: 
#        150
#        31132
#        47506
#        67362
#        78950
#        99027
#        119516
#        134962
#        157725
#        173322
#        198425
#        208777
#        234201
#        244529
#
# Disc length: 3542 seconds
#
# Revision: 0
# Processed by: cddbd v1.5.1PL2 Copyright (c) Steve Scherf et al.
# Submitted via: ExactAudioCopy v0.95b2
#
DISCID=af0dd40e
DTITLE=Big Bad Smitty - Mean Disposition
DYEAR=1991
DGENRE=Blues
TTITLE0=How Many More Years
TTITLE1=Long Ol' Lonesome Day
TTITLE2=You Don't Leave Me
TTITLE3=Feel Like Love
TTITLE4=Still A Fool
TTITLE5=You Don't Love Nobody
TTITLE6=Cairo
TTITLE7=Angel Of Mercy
TTITLE8=Smitty's Boogie
TTITLE9=Sweet Feelin'
TTITLE10=Didn't Mary Your Family
TTITLE11=Walk The Back Streets Cryin'
TTITLE12=Mean Disposition
TTITLE13=Lonely Man
EXTD=
EXTT0=
EXTT1=
EXTT2=
EXTT3=
EXTT4=
EXTT5=
EXTT6=
EXTT7=
EXTT8=
EXTT9=
EXTT10=
EXTT11=
EXTT12=
EXTT13=
PLAYORDER=
